<svg viewBox="0 0 400 280" xmlns="http://www.w3.org/2000/svg">
  <defs>
    <linearGradient id="mtvSky" x1="0" y1="0" x2="0" y2="1">
      <stop offset="0%" stop-color="#eef5fc"/>
      <stop offset="100%" stop-color="#dceaf8"/>
    </linearGradient>
    <linearGradient id="mtvGlass" x1="0" y1="0" x2="1" y2="1">
      <stop offset="0%" stop-color="#7baae0"/>
      <stop offset="100%" stop-color="#2861b3"/>
    </linearGradient>
  </defs>
  <rect width="400" height="280" fill="url(#mtvSky)"/>
  <rect x="0" y="220" width="400" height="60" fill="#c5deef"/>
  <!-- Two modern towers, varying height -->
  <rect x="120" y="120" width="70" height="110" fill="url(#mtvGlass)"/>
  <rect x="210" y="60" width="80" height="170" fill="url(#mtvGlass)"/>
  <!-- Glass grid lines -->
  <g stroke="#eef5fc" stroke-width="2" opacity="0.7">
    <path d="M120 140h70M120 160h70M120 180h70M120 200h70M120 220h70"/>
    <path d="M143 120v110M167 120v110"/>
    <path d="M210 80h80M210 100h80M210 120h80M210 140h80M210 160h80M210 180h80M210 200h80M210 220h80"/>
    <path d="M236 60v170M263 60v170"/>
  </g>
  <!-- Rooftop accent -->
  <rect x="240" y="48" width="20" height="12" fill="#16324f"/>
</svg>
